<svg xmlns="http://www.w3.org/2000/svg" viewBox="0 0 346.55 276.68"><defs><style>.cls-1{fill:#e8dbc5;}.cls-2{font-size:18.04px;font-family:Quicksand-Bold, Quicksand;font-weight:700;}.cls-2,.cls-6{fill:#2f2f30;}.cls-3,.cls-4,.cls-5{fill:none;stroke:#404041;stroke-linecap:round;stroke-miterlimit:10;}.cls-3{stroke-dasharray:2;}.cls-5{stroke-width:3px;}.cls-6,.cls-7{fill-rule:evenodd;}.cls-7{fill:#404041;}</style></defs><title>Asset 2</title><g id="Layer_2" data-name="Layer 2"><g id="OBJECTS"><circle class="cls-1" cx="173.01" cy="138.34" r="136.84"/><circle class="cls-1" cx="173.01" cy="138.34" r="117.95"/><text class="cls-2" transform="matrix(0.65, -0.76, 0.76, 0.65, 94.04, 80.67)">·</text><text class="cls-2" transform="matrix(0.72, -0.69, 0.69, 0.72, 97.92, 75.75)">G</text><text class="cls-2" transform="matrix(0.8, -0.6, 0.6, 0.8, 108.28, 65.85)">o</text><text class="cls-2" transform="matrix(0.85, -0.52, 0.52, 0.85, 117.08, 59.29)">s</text><text class="cls-2" transform="matrix(0.89, -0.45, 0.45, 0.89, 124.47, 54.8)">t</text><text class="cls-2" transform="matrix(0.93, -0.37, 0.37, 0.93, 130.61, 51.56)">o</text><text class="cls-2" transform="matrix(0.96, -0.28, 0.28, 0.96, 140.81, 47.51)">s</text><text class="cls-2" transform="matrix(0.98, -0.19, 0.19, 0.98, 149.04, 45.03)">u</text><text class="cls-2" transform="matrix(0.99, -0.1, 0.1, 1, 159.63, 43.06)">r</text><text class="cls-2" transform="matrix(1, -0.01, 0.01, 1, 167.25, 42.21)">a</text><text class="cls-2" transform="matrix(1, 0.07, -0.07, 1, 178.17, 42.22)"> </text><text class="cls-2" transform="matrix(0.99, 0.15, -0.15, 0.99, 183.33, 42.43)">d</text><text class="cls-2" transform="matrix(0.96, 0.26, -0.26, 0.97, 194.77, 44.19)">e</text><text class="cls-2" transform="matrix(0.94, 0.33, -0.34, 0.94, 205.1, 47.08)"> </text><text class="cls-2" transform="matrix(0.9, 0.43, -0.43, 0.9, 210.03, 48.56)">M</text><text class="cls-2" transform="matrix(0.86, 0.51, -0.51, 0.86, 223.43, 55.14)">i</text><text class="cls-2" transform="matrix(0.82, 0.58, -0.58, 0.82, 227.65, 57.51)">n</text><text class="cls-2" transform="matrix(0.75, 0.66, -0.66, 0.75, 236.43, 63.68)">a</text><text class="cls-2" transform="matrix(0.68, 0.73, -0.73, 0.69, 244.57, 70.89)">s</text><text class="cls-2" transform="matrix(0.63, 0.78, -0.78, 0.63, 250.48, 77.21)">·</text><circle class="cls-3" cx="173.01" cy="138.34" r="131.11"/><path class="cls-4" d="M84.15,82.33A104.67,104.67,0,0,0,67,153.64,106.21,106.21,0,0,0,69,165.19"/><path class="cls-4" d="M79.16,82.31a104.67,104.67,0,0,0-16.09,71.57,106.21,106.21,0,0,0,2.23,11.51"/><path class="cls-4" d="M273.79,166.51a105.34,105.34,0,0,0-13.43-84"/><path class="cls-4" d="M277.79,166.5a105.34,105.34,0,0,0-12.7-84.11"/><circle class="cls-5" cx="173.01" cy="138.34" r="136.84"/><circle class="cls-5" cx="173.01" cy="138.34" r="125.26"/><path id="_Path_" data-name="&lt;Path&gt;" class="cls-6" d="M37.83,238.21c-1.8-14.84-3.6-21.46-5.36-36.3C21.23,204.78,10.38,208,0,211.52l21.61,11.24-1,2.06c-4.54,9.21-9.16,18.52-13.78,27.76,13.55-3.67,28.09-6.86,43.45-9.55l-9.95-1.92-1-.21-.55-.1-.59-.12Z"/><path id="_Path_2" data-name="&lt;Path&gt;" class="cls-7" d="M68.46,236.36c-6.05,1-13.13,1.89-19,3.06,6.26,1.2,16.67,2.39,22.94,3.55Z"/><path id="_Path_3" data-name="&lt;Path&gt;" class="cls-6" d="M306.24,241.12l-10,1.92c15.36,2.69,29.91,5.88,43.45,9.55-4.61-9.23-9.24-18.54-13.79-27.76l-1-2.06,21.61-11.24c-10.38-3.53-21.23-6.74-32.47-9.61-1.75,14.81-3.55,21.44-5.36,36.3l-.3,2.48-.59.12,0,.22-.52-.12Z"/><path id="_Path_4" data-name="&lt;Path&gt;" class="cls-7" d="M273.28,243.19c6.27-1.17,17.52-2.57,23.78-3.77-5.83-1.16-13.21-2.06-19.27-3.06Z"/><path id="_Path_5" data-name="&lt;Path&gt;" class="cls-7" d="M42,237.75c39.11-8.52,84.26-13.23,132.45-13.24s93.35,4.72,132.45,13.24c2.38-19.58,4.72-30.77,7-50.35-41.72-11.69-89.09-18.17-139.47-18.18S76.75,175.71,35,187.4C37.33,207,39.67,218.17,42,237.75Z"/><path class="cls-1" d="M55.74,212.86a1.41,1.41,0,0,1,1.09-1.74,1.46,1.46,0,1,1-1.09,1.74Z"/><path class="cls-1" d="M61.52,211.6a1.41,1.41,0,0,1,1.11-1.73,1.46,1.46,0,1,1-1.11,1.73Z"/><path class="cls-1" d="M67.32,210.4a1.41,1.41,0,0,1,1.12-1.72,1.46,1.46,0,1,1-1.12,1.72Z"/><path class="cls-1" d="M87.84,205.44q-3.1.5-6.19,1l1,5.57q3.41-.59,6.83-1.13l.27,1.68q-4.42.71-8.84,1.49l-2.72-15.42q4.36-.77,8.74-1.47l.27,1.67q-3.32.53-6.63,1.1l.84,4.88q3.1-.54,6.21-1Z"/><path class="cls-1" d="M92,203.93c-.18-1.15-.34-2.09-.55-3l1.84-.28.36,1.78h.07A4,4,0,0,1,97,199.85a3.42,3.42,0,0,1,3.58,1.78h0a4.64,4.64,0,0,1,1.09-1.62,4.05,4.05,0,0,1,2.45-1.12c1.53-.2,3.93.49,4.39,4.37l.8,6.57-2,.25-.79-6.32c-.27-2.14-1.24-3.33-2.94-3.11a2.71,2.71,0,0,0-2.23,2.17,3.28,3.28,0,0,0,0,1l.93,6.89-2,.28-.93-6.67c-.25-1.77-1.24-2.95-2.83-2.72a2.86,2.86,0,0,0-2.29,2.4,2.74,2.74,0,0,0,0,1l1,6.71-2,.3Z"/><path class="cls-1" d="M112.8,201.78c-.16-1.43-.34-2.58-.51-3.64l1.89-.21.31,1.91h0a4.58,4.58,0,0,1,3.88-2.61c2.81-.29,5.14,1.81,5.45,5.21.37,4-1.93,6.25-4.6,6.52a4.06,4.06,0,0,1-3.69-1.38h0l.67,6.08-2,.23Zm2.4,2.75a4.54,4.54,0,0,0,.19.82,3.22,3.22,0,0,0,3.37,2c2.19-.23,3.29-2.11,3-4.67-.22-2.24-1.62-4-3.85-3.82a3.33,3.33,0,0,0-2.9,2.86,3.21,3.21,0,0,0-.05.85Z"/><path class="cls-1" d="M137.87,201.38a5.59,5.59,0,0,1-5.26,6.37c-3.07.24-5.64-1.77-6-5.31a5.54,5.54,0,0,1,5.24-6.43C135.22,195.75,137.64,197.95,137.87,201.38Zm-9.12.81c.21,2.45,1.8,4.18,3.83,4s3.33-2.09,3.15-4.62c-.13-1.9-1.29-4.25-3.78-4.05S128.57,200.06,128.75,202.19Z"/><path class="cls-1" d="M141.33,199.13c-.08-1.32-.17-2.46-.31-3.5l1.85-.11.2,2.2h.1a3.45,3.45,0,0,1,3.08-2.63,2.37,2.37,0,0,1,.61,0l.1,1.93a3.26,3.26,0,0,0-.72,0,2.91,2.91,0,0,0-2.68,2.78,5.64,5.64,0,0,0,0,1l.34,6-2,.12Z"/><path class="cls-1" d="M152.26,191.9a1.32,1.32,0,0,1-2.64.11,1.27,1.27,0,0,1,1.28-1.34A1.24,1.24,0,0,1,152.26,191.9Zm-1.73,14.49-.5-11.24,2.12-.09.46,11.24Z"/><path class="cls-1" d="M167.23,200.19c0,4.16-2.85,6-5.6,6.08-3.08.07-5.53-2.07-5.66-5.62a5.53,5.53,0,0,1,5.57-6.14C164.89,194.43,167.19,196.76,167.23,200.19Zm-9.14.32c.08,2.46,1.57,4.27,3.6,4.23s3.44-1.91,3.4-4.44c0-1.9-1.06-4.31-3.55-4.25S158,198.37,158.09,200.51Z"/><path class="cls-1" d="M187,189.5l-.31,13.59c0,1,0,2.14,0,2.91l-1.86,0-.06-2h0a4.27,4.27,0,0,1-3.93,2.15c-2.75,0-4.86-2.34-4.86-5.75,0-3.74,2.39-6,5.24-6a3.9,3.9,0,0,1,3.48,1.77h0l.13-6.72Zm-2.32,9.78a3.51,3.51,0,0,0-.08-.86,3.07,3.07,0,0,0-3-2.42c-2.19,0-3.49,1.83-3.51,4.31,0,2.28,1.11,4.16,3.35,4.19a3.14,3.14,0,0,0,3.09-2.39,3.5,3.5,0,0,0,.11-.88Z"/><path class="cls-1" d="M192.35,200.9a3.66,3.66,0,0,0,3.79,4,7.75,7.75,0,0,0,3.19-.44l.29,1.48a9.52,9.52,0,0,1-3.82.53,5.3,5.3,0,0,1-5.44-5.86c.09-3.39,2.24-6,5.64-5.88,3.81.15,4.66,3.44,4.56,5.5a7.66,7.66,0,0,1-.12.95Q196.39,201,192.35,200.9Zm6.2-1.23c.08-1.3-.4-3.35-2.78-3.44-2.14-.08-3.14,1.79-3.35,3.21Q195.49,199.54,198.55,199.68Z"/><path class="cls-1" d="M223.74,201.21c.08-2.19.17-4.81.37-6.76H224c-.72,1.78-1.56,3.66-2.56,5.75q-1.75,3.66-3.45,7.34l-1.55-.12q-1-3.82-2-7.63c-.6-2.26-1.11-4.32-1.44-6.21h0c-.18,1.94-.49,4.56-.79,6.89s-.59,4.45-.89,6.67l-2-.13q1.06-7.78,2.15-15.56l2.69.19q1.12,3.88,2.2,7.76c.52,2,.93,3.73,1.2,5.39h.07a54.91,54.91,0,0,1,2.12-5.12q1.75-3.66,3.53-7.3l2.68.24q-.22,7.85-.47,15.69l-2-.19Q223.63,204.66,223.74,201.21Z"/><path class="cls-1" d="M233.64,194.63a1.32,1.32,0,0,1-2.63-.28,1.27,1.27,0,0,1,1.46-1.13A1.24,1.24,0,0,1,233.64,194.63Zm-3.84,14.08L231,197.52l2.11.22-1.2,11.18Z"/><path class="cls-1" d="M237.17,201.27c.13-1.15.22-2.1.25-3l1.87.22-.1,1.86h0a4.28,4.28,0,0,1,4.08-1.63c1.61.2,4,1.45,3.46,5.28l-.89,6.66-2.06-.27.84-6.43c.23-1.8-.26-3.39-2.24-3.64a3,3,0,0,0-3.07,1.73,2.86,2.86,0,0,0-.25.93l-.8,6.72-2.06-.24Z"/><path class="cls-1" d="M256.42,212.14l.05-1.43h-.07a4.33,4.33,0,0,1-3.71,1.13,3.25,3.25,0,0,1-3-3.7c.37-2.69,3-3.83,7.48-3.13l0-.23a2.34,2.34,0,0,0-2.22-3,5.89,5.89,0,0,0-3.12.39l-.29-1.4a7.34,7.34,0,0,1,3.94-.44c3.54.53,4,3,3.68,5.22l-.65,4.15a15.6,15.6,0,0,0-.23,2.69Zm.57-5.72c-2.26-.4-4.89-.38-5.2,1.79a1.83,1.83,0,0,0,1.67,2.22,2.87,2.87,0,0,0,3-1.45,2.08,2.08,0,0,0,.22-.63Z"/><path class="cls-1" d="M262.41,211a5.61,5.61,0,0,0,2.58,1.26c1.5.25,2.32-.35,2.48-1.27s-.33-1.59-1.76-2.4c-1.93-1.06-2.71-2.32-2.5-3.65.29-1.79,2-3,4.51-2.59a6,6,0,0,1,2.71,1.18l-.78,1.37a4.62,4.62,0,0,0-2.24-1.05c-1.24-.21-2,.36-2.18,1.19s.46,1.44,1.85,2.25c1.86,1.08,2.69,2.22,2.4,3.87-.35,1.95-2.13,3-4.81,2.58a6.7,6.7,0,0,1-3-1.29Z"/><path class="cls-1" d="M278.86,209.85a1.41,1.41,0,0,1,1.69-1.16,1.46,1.46,0,1,1-1.69,1.16Z"/><path class="cls-1" d="M284.66,211a1.41,1.41,0,0,1,1.71-1.14,1.46,1.46,0,1,1-1.71,1.14Z"/><path class="cls-1" d="M290.44,212.25a1.41,1.41,0,0,1,1.72-1.12,1.46,1.46,0,1,1-1.72,1.12Z"/><path id="_Compound_Path_" data-name="&lt;Compound Path&gt;" class="cls-7" d="M172.87,229.2l2.66,5.75,6.18.65-4.66,4.31,1.28,6.06-5.54-3.09L167.41,246l1.23-6.22L164,235.6l6.31-.75,2.54-5.66Zm21.31-1.1,1.89,4.08,4.37.46-3.3,3.05.91,4.3-3.93-2.19L190.31,240l.87-4.4-3.26-2.94,4.46-.53,1.79-4Zm-42.62,0,1.88,4.08,4.37.46-3.3,3.05.91,4.3-3.93-2.19L147.69,240l.88-4.4-3.26-2.94,4.47-.53Z"/><path class="cls-6" d="M209.07,120.16l-.14,3.77s5.63-2.08,9.36-.79c9.76,3.38,6.48,15.94,1.29,21.06S206,154,205.95,153.46s7.82.36,12.49-4.16,8.61-8.11,9.69-13.06c1.42-6.53-.38-16.28-7.86-17.65C215.65,117.69,209.07,120.16,209.07,120.16Z"/><path class="cls-6" d="M208,122.06c5.93-2.53,13-5.46,17.34,1.66,5.24,8.59-.61,20-8.17,24.85-6.41,4.14-11.15,4.15-18,5.66,10.38,1.54,22.63-3.14,28.07-12.38,4.86-8.26,3.32-22.38-7.15-24.14a18.86,18.86,0,0,0-10.63,1.78C208.21,120.23,209.13,121.06,208,122.06Z"/><path class="cls-6" d="M208.67,126.73c14.4-7.52,21.33,12.47-1.65,22.68,7.63-1.66,15.39-8.47,15.83-15.94C223.59,120.83,209.67,122.78,208.67,126.73Z"/><path class="cls-6" d="M162.67,118.93c-4.78-.14-41.61-2.68-27.94-7.92,11-4.23,40.53-4,54.36-3.08,4.49.31,25.78,2.11,20.88,6.49-5.29,4.73-36.71,4.83-47.3,4.51Zm17.39-1.14c4.76-.2,26.55-1.57,27.49-4.41s-20.68-4.32-23.91-4.51c-12-.67-40.83-.76-49.8,2.91-1.21.49-1.89.84-1.95,1.46C135.26,118.36,170.17,118.19,180.07,117.78Z"/><path class="cls-6" d="M196.58,156.67c8.23-9.81,9.1-27.23,10.67-41.89a14,14,0,0,0,3.42-1.35C208.94,129.08,208,147.46,196.58,156.67Z"/><path class="cls-6" d="M134.34,115c.22,11,2,30,9.42,40.05-11.76-11.23-12.12-42.5-12-41.9C131.53,113.66,132.43,114.09,134.34,115Z"/><path class="cls-6" d="M143.76,155c5.55,5.3,14.09,8.6,27.48,8.6,12,0,19.95-2.64,25.34-7-4.87,5.8-12.7,9.47-25.6,9.47C156.91,166.13,148.71,161.78,143.76,155Z"/><path class="cls-6" d="M173.48,124.19a124.35,124.35,0,0,1-25.41,1c-2.28,17,2.18,31.43,22.09,35.44-31.13,1.4-33.48-24.39-34-41.22,8.65,3,21,4.85,34.66,4.85Z"/><path class="cls-6" d="M203.51,120c-1.34,11.47-2,29.76-10,35.71-3,2.22-11.05,5-10.48,4.59,11.14-8.36,12-25.19,11.53-38.14A82,82,0,0,0,203.51,120Z"/><path class="cls-6" d="M169.33,112.31c14.09,0,26.41,1,33,2.48-6.63,1.48-18.94,2.48-33,2.48s-26.41-1-33-2.48C142.92,113.3,155.24,112.31,169.33,112.31Z"/><path class="cls-6" d="M163.84,103.41c6.77-1.49,11-3.46,5.32-7.74-2.85-2.16-12.8-6.88-12-9.66,1-3.32,11.58-3.53,14.43-5.69,6.14-4.66-12.62-12.65.38-19.54L173.5,60h0c-11,3.82-6.76,8.94-3.26,14.72,3.64,6-1,5.51-7.62,7.15-13.83,3.43-4.68,8.42,1.91,12.55,6.43,4,7.9,5.67-1.27,7.61Z"/><path class="cls-6" d="M173.56,104.06c13.45-2.59,19.39-5.69,5.06-11.36C176.33,91.79,164,87.92,166.9,86c4.53-2.92,19.14-1.75,11.89-9.9-4.85-5.45-11.91-9.89-2.42-15.5,1-.57,3-1.58,4-2.08a22.37,22.37,0,0,0-6.05,2.66c-8.31,5.35-1.16,10.55,3,15.51s-.56,5-6.83,6.42c-18.58,4.17,8.46,10.47,12.78,14.09,3.43,2.88-8,4.38-10.44,4.82Z"/></g></g></svg>